<svg width="48" height="48" viewBox="0 0 48 48" fill="none" xmlns="http://www.w3.org/2000/svg">
<path d="M46.9769 10.6433C42.7905 0.643811 29.084 0.184452 24.0001 9.43425C20.079 2.29994 10.5893 0.691996 4.6055 5.73941C4.3086 5.98972 4.27101 6.43333 4.52141 6.73013C4.77171 7.02693 5.21532 7.06452 5.51212 6.81422C11.1719 2.04036 20.107 4.03978 23.1921 10.9673L17.1632 18.7916C16.0866 20.1782 16.8012 22.567 19.9826 22.5669C21.1068 22.5668 22.4077 22.2644 24.1969 20.9148L29.4397 16.8745L33.5275 20.9451C33.8025 21.2191 34.2478 21.2182 34.5218 20.9431C34.7958 20.6679 34.7948 20.2227 34.5197 19.9488L31.4339 16.876C32.6146 16.9121 34.1849 16.801 35.8696 16.2417C36.2381 16.1193 36.4377 15.7214 36.3153 15.3529C36.193 14.9843 35.7951 14.7847 35.4265 14.9071C33.4413 15.5661 31.1678 15.6068 29.6578 15.257C29.4445 15.2077 29.2311 15.2603 29.0697 15.3844C24.5039 18.8223 22.5856 20.69 20.9359 21.0557C19.7813 21.3115 18.744 21.0685 18.3542 20.7098C18.0598 20.4389 18.0245 19.9751 18.2755 19.652C24.9843 10.9418 24.5955 11.4734 24.6519 11.3341C28.4372 1.97192 41.7327 1.75865 45.6799 11.1863C47.492 15.5146 46.587 20.2653 43.322 23.5801L40.7476 26.1503L36.6912 22.111C36.416 21.837 35.9708 21.8378 35.6969 22.113C35.4229 22.3882 35.4238 22.8334 35.6989 23.1073L41.054 28.4398C41.7868 29.1725 41.7867 30.3647 41.054 31.0975C40.3214 31.8301 39.1296 31.8301 38.3968 31.0979L29.0466 21.7329C28.7722 21.4581 28.3271 21.4578 28.0522 21.7321C27.7774 22.0065 27.7771 22.4516 28.0515 22.7265L37.4021 32.0919C38.1348 32.8246 38.1348 34.0168 37.4021 34.7495C36.668 35.4836 35.4797 35.4842 34.7449 34.75C34.7449 34.75 34.7449 34.75 34.7448 34.7499L25.3946 25.385C25.1203 25.1101 24.6751 25.1099 24.4002 25.3842C24.1254 25.6586 24.1251 26.1037 24.3995 26.3786L33.7501 35.7439C34.4828 36.4766 34.4829 37.6689 33.7501 38.4016C33.0173 39.1342 31.8251 39.1342 31.0956 38.4047L29.9989 37.2942C29.8801 35.3097 28.0198 33.8742 26.0693 34.2726C26.1679 32.1983 24.3686 30.6076 22.3964 30.8473C22.6459 28.6861 20.7821 26.9089 18.6796 27.2051C18.9759 24.2104 15.3912 22.3795 13.1585 24.4862L9.26546 28.1594L4.68256 23.5845C0.562857 19.4019 0.485047 13.2856 3.57081 8.93055C3.79534 8.61369 3.72043 8.17486 3.40357 7.95033C3.0868 7.7259 2.64788 7.80062 2.42335 8.11758C-1.04762 13.0164 -0.92931 19.8909 3.68453 24.5753L8.25374 29.1367C6.28581 31.4108 8.17772 34.9532 11.1921 34.5368C10.9794 36.6455 12.7674 38.3818 14.8544 38.1321C14.5912 40.3635 16.5738 42.1829 18.7682 41.7417C18.6203 44.725 22.2351 46.351 24.3633 44.2367C28.919 39.8537 29.2158 39.8604 29.6648 38.9574L30.0979 39.3959C32.2974 41.5956 36.0478 39.7736 35.6809 36.6822C37.8218 36.9353 39.5828 35.1251 39.3327 33.0283C42.4152 33.3961 44.2543 29.6516 42.0471 27.4445L41.7439 27.1425C43.0642 25.5506 46.9371 23.1457 47.8295 17.7634C48.2246 15.3813 47.9298 12.9192 46.9769 10.6433ZM9.40992 32.6132C8.67945 31.8827 8.6772 30.6954 9.40336 29.9622L14.1232 25.5089C14.8674 24.8068 16.0168 24.8235 16.7403 25.547C17.4897 26.2964 17.4718 27.514 16.7012 28.2412L12.0824 32.599C11.2246 33.409 10.0854 33.2887 9.40992 32.6132ZM13.1318 36.2014C12.445 35.5145 12.3469 34.3615 13.1414 33.533C16.9323 29.9546 17.7073 29.2271 17.845 29.0971C18.5891 28.395 19.7386 28.4117 20.462 29.135C21.2098 29.8829 21.195 31.1006 20.4229 31.8292C14.889 37.0507 15.9239 36.0668 15.7895 36.2014C15.0567 36.934 13.8646 36.9341 13.1318 36.2014ZM23.3914 43.2204C23.3864 43.2251 23.3816 43.2298 23.3768 43.2346C22.6425 43.9689 21.4536 43.9691 20.7191 43.2346C19.9886 42.5041 19.9863 41.3168 20.7125 40.5836L21.7056 39.6466C21.988 39.38 22.0009 38.9351 21.7344 38.6527C21.468 38.3702 21.023 38.3574 20.7405 38.6238L19.4448 39.852C18.7103 40.5864 17.5216 40.5864 16.7871 39.852C16.0956 39.1604 16.0069 38.0033 16.7959 37.1846C19.6165 34.5222 19.4066 34.7236 21.5004 32.7476C22.2446 32.0455 23.3941 32.0623 24.1175 32.7856C24.8446 33.5128 24.8539 34.6861 24.1315 35.4244L22.9791 36.5117C22.6966 36.7782 22.6837 37.2231 22.9502 37.5056C23.2168 37.7881 23.6618 37.801 23.9441 37.5344C23.9537 37.5255 25.422 36.1402 25.4324 36.1302C26.1765 35.4281 27.3259 35.4448 28.0494 36.1683C28.8002 36.9191 28.7794 38.1368 28.0103 38.8624L23.3914 43.2204Z" fill="#2490EB"/>
</svg>
