<svg width="48" height="48" viewBox="0 0 48 48" fill="none" xmlns="http://www.w3.org/2000/svg">
<path d="M43.5 3H39.75V2.25C39.75 1.00941 38.7407 0 37.5 0C36.2593 0 35.25 1.00941 35.25 2.25V3H12.75V2.25C12.75 1.00941 11.7407 0 10.5 0C9.25931 0 8.25 1.00941 8.25 2.25V3H4.5C2.84578 3 1.5 4.34578 1.5 6V37.5C1.5 39.1542 2.84578 40.5 4.5 40.5H15C15.4142 40.5 15.75 40.1642 15.75 39.75C15.75 39.3358 15.4142 39 15 39H4.5C3.67294 39 3 38.3271 3 37.5V12H45V37.5C45 38.3271 44.3271 39 43.5 39H35.25C34.8358 39 34.5 39.3358 34.5 39.75C34.5 40.1642 34.8358 40.5 35.25 40.5H43.5C45.1542 40.5 46.5 39.1542 46.5 37.5C46.5 36.1274 46.5 7.50712 46.5 6C46.5 4.34578 45.1542 3 43.5 3ZM36.75 2.25C36.75 1.83647 37.0865 1.5 37.5 1.5C37.9135 1.5 38.25 1.83647 38.25 2.25V6C38.25 6.41353 37.9135 6.75 37.5 6.75C37.0865 6.75 36.75 6.41353 36.75 6V2.25ZM9.75 2.25C9.75 1.83647 10.0865 1.5 10.5 1.5C10.9135 1.5 11.25 1.83647 11.25 2.25V6C11.25 6.41353 10.9135 6.75 10.5 6.75C10.0865 6.75 9.75 6.41353 9.75 6V2.25ZM3 10.5V6C3 5.17294 3.67294 4.5 4.5 4.5H8.25V6C8.25 7.24059 9.25931 8.25 10.5 8.25C11.7407 8.25 12.75 7.24059 12.75 6V4.5H35.25V6C35.25 7.24059 36.2593 8.25 37.5 8.25C38.7407 8.25 39.75 7.24059 39.75 6V4.5H43.5C44.3271 4.5 45 5.17294 45 6V10.5H3Z" fill="#2490EB"/>
<path d="M36.75 31.5C36.75 29.0186 34.7313 27 32.25 27C29.7687 27 27.75 29.0186 27.75 31.5C27.75 33.7257 29.3746 35.5781 31.5 35.9363V40.125C31.5 43.6402 28.6402 46.5 25.125 46.5C21.6098 46.5 18.75 43.6402 18.75 40.125V35.9573C22.1201 35.5829 24.75 32.7184 24.75 29.25V22.5C24.75 20.8458 23.4042 19.5 21.75 19.5C21.3358 19.5 21 19.8358 21 20.25C21 20.6642 21.3358 21 21.75 21C22.5771 21 23.25 21.6729 23.25 22.5V29.25C23.25 32.1449 20.8948 34.5 18 34.5C15.1052 34.5 12.75 32.1449 12.75 29.25V22.5C12.75 21.6729 13.4229 21 14.25 21C14.6642 21 15 20.6642 15 20.25C15 19.8358 14.6642 19.5 14.25 19.5C12.5958 19.5 11.25 20.8458 11.25 22.5V29.25C11.25 32.7184 13.8799 35.5829 17.25 35.9573V40.125C17.25 44.4672 20.7827 48 25.125 48C29.4673 48 33 44.4672 33 40.125V35.9363C35.1254 35.5781 36.75 33.7257 36.75 31.5ZM29.25 31.5C29.25 29.8458 30.5958 28.5 32.25 28.5C33.9042 28.5 35.25 29.8458 35.25 31.5C35.25 32.8953 34.2924 34.0712 33 34.405V32.797C33.4476 32.5372 33.75 32.0538 33.75 31.5C33.75 30.6729 33.0771 30 32.25 30C31.4229 30 30.75 30.6729 30.75 31.5C30.75 32.0538 31.0524 32.5372 31.5 32.797V34.405C30.2076 34.0712 29.25 32.8953 29.25 31.5Z" fill="#2490EB"/>
</svg>
