<svg width="48" height="48" viewBox="0 0 48 48" fill="none" xmlns="http://www.w3.org/2000/svg">
<path d="M0.87 43.8522C0.705 44.1072 0.7125 44.4372 0.8925 44.6847C1.035 44.8872 1.2675 45.0072 1.5075 45.0072C1.56 45.0072 1.6125 45.0072 1.6725 44.9922L8.565 43.4622C10.5525 44.4747 12.78 45.0072 15.015 45.0072C22.7925 45.0072 29.13 38.7372 29.25 30.9822C32.625 31.8972 36.3225 31.5522 39.4575 29.9622L46.35 31.4847C46.4025 31.4997 46.455 31.4997 46.515 31.4997C46.755 31.4997 46.9875 31.3797 47.13 31.1772C47.3025 30.9297 47.31 30.5997 47.1525 30.3447L44.34 25.8972C46.23 23.4297 47.265 20.3772 47.265 17.2422C47.265 9.38219 40.875 2.99219 33.015 2.99219C25.155 2.99219 18.9 9.26219 18.78 17.0097C17.58 16.6797 16.32 16.4922 15.015 16.4922C7.14 16.4997 0.75 22.8897 0.75 30.7497C0.75 33.8772 1.785 36.9297 3.6825 39.4047L0.87 43.8522ZM33 4.49969C40.0275 4.49969 45.75 10.2222 45.75 17.2497C45.75 20.2122 44.715 23.0997 42.825 25.3722C42.615 25.6197 42.5925 25.9797 42.765 26.2497L44.9025 29.6247L39.5025 28.4322C39.33 28.3947 39.1425 28.4172 38.985 28.4997C35.9925 30.0897 32.385 30.3972 29.175 29.3922C28.665 23.9847 25.11 19.4472 20.25 17.5122C20.25 17.4222 20.2425 17.3322 20.2425 17.2422C20.2425 10.2147 25.965 4.49219 32.9925 4.49219L33 4.49969ZM2.25 30.7497C2.25 23.7222 7.9725 17.9997 15 17.9997C22.0275 17.9997 27.75 23.7222 27.75 30.7497C27.75 37.7772 22.0275 43.4997 15 43.4997C12.915 43.4997 10.845 42.9822 9.0075 41.9997C8.895 41.9397 8.775 41.9097 8.655 41.9097C8.6025 41.9097 8.5425 41.9097 8.49 41.9247L3.0975 43.1172L5.235 39.7422C5.4075 39.4647 5.385 39.1122 5.1825 38.8647C3.2925 36.5847 2.2575 33.6972 2.2575 30.7347L2.25 30.7497Z" fill="#2490EB"/>
<path d="M15 37.5C15.6213 37.5 16.125 36.9963 16.125 36.375C16.125 35.7537 15.6213 35.25 15 35.25C14.3787 35.25 13.875 35.7537 13.875 36.375C13.875 36.9963 14.3787 37.5 15 37.5Z" fill="#2490EB"/>
<path d="M15 24.75C16.2375 24.75 17.25 25.7625 17.25 27C17.25 28.2375 16.2375 29.25 15 29.25C14.5875 29.25 14.25 29.5875 14.25 30V33.75H15.75V30.675C17.46 30.33 18.75 28.815 18.75 27C18.75 24.93 17.07 23.25 15 23.25C12.93 23.25 11.25 24.93 11.25 27H12.75C12.75 25.7625 13.7625 24.75 15 24.75Z" fill="#2490EB"/>
<path d="M27 12H39V13.5H27V12Z" fill="#2490EB"/>
<path d="M27 16.5H39V18H27V16.5Z" fill="#2490EB"/>
<path d="M30 21H39V22.5H30V21Z" fill="#2490EB"/>
</svg>
