<svg width="48" height="48" viewBox="0 0 48 48" fill="none" xmlns="http://www.w3.org/2000/svg">
<g clip-path="url(#clip0_1_2289)">
<path d="M15.9599 17.8421C16.5599 18.2096 17.2274 18.3971 17.9099 18.3971C18.2024 18.3971 18.5024 18.3596 18.7949 18.2921C19.7699 18.0596 20.5949 17.4596 21.1124 16.6046L22.2899 14.6771C23.1824 16.8671 25.3349 18.3971 27.8324 18.3971C31.1399 18.3971 33.8324 15.7046 33.8324 12.3971C33.8324 9.08956 31.1399 6.39706 27.8324 6.39706C26.9474 6.39706 26.1074 6.59206 25.3274 6.95206C25.0424 6.18706 24.5324 5.50456 23.7899 5.05456C22.9349 4.52956 21.9299 4.37206 20.9549 4.60456C19.9799 4.83706 19.1549 5.43706 18.6374 6.29206L14.7224 12.6896C13.6424 14.4521 14.1974 16.7621 15.9599 17.8421ZM32.3324 12.3971C32.3324 14.8796 30.3149 16.8971 27.8324 16.8971C27.5999 16.8971 27.3674 16.8746 27.1424 16.8371L29.9474 8.42206C31.3649 9.17956 32.3324 10.6721 32.3324 12.3896V12.3971ZM25.0274 10.2071C25.3499 9.68206 25.5074 9.10456 25.5524 8.53456C26.2349 8.12206 27.0074 7.89706 27.8324 7.89706C28.0649 7.89706 28.2974 7.91956 28.5224 7.95706L25.7174 16.3646C24.4424 15.6821 23.5349 14.4146 23.3774 12.9071L25.0274 10.2071ZM19.9124 7.07206C20.2274 6.56206 20.7224 6.20206 21.3074 6.05956C21.8924 5.91706 22.4924 6.01456 23.0099 6.32956C24.0674 6.97456 24.4049 8.36206 23.7524 9.42706L22.1849 11.9846L18.3449 9.63706L19.9124 7.07956V7.07206ZM15.9974 13.4696L17.5649 10.9121L21.4049 13.2596L19.8374 15.8171C19.5224 16.3271 19.0274 16.6871 18.4424 16.8296C17.8574 16.9721 17.2574 16.8746 16.7399 16.5596C15.6824 15.9146 15.3449 14.5271 15.9974 13.4696Z" fill="#2490EB"/>
<path d="M33.135 28.5299C32.91 28.2599 32.7 27.9749 32.4975 27.6899C31.905 26.8874 31.2975 26.0624 30.39 25.4924C29.2575 24.7874 27.825 24.6299 26.5725 25.0874C25.3125 25.5374 24.315 26.5724 23.8875 27.8399C23.775 28.1699 23.715 28.4999 23.6475 28.8149C23.58 29.1524 23.52 29.4674 23.4075 29.7449C23.25 30.1424 22.935 30.4274 22.6875 30.4274C22.3425 30.4049 22.0425 29.8274 21.855 28.8449C21.5325 27.1499 21.0225 25.2299 19.6875 23.8574C18.33 22.4474 15.8025 21.7724 14.0925 23.1299C13.3725 23.6999 12.9525 24.5174 12.6075 25.1774L9.45752 31.2524L10.7925 31.9424L13.9425 25.8674C14.2425 25.2824 14.5575 24.6749 15.0225 24.3074C16.0425 23.4974 17.6925 23.9624 18.6075 24.8999C19.665 25.9949 20.1 27.6524 20.3775 29.1299C20.715 30.8999 21.4575 31.8449 22.575 31.9274C23.6175 32.0099 24.4575 31.1699 24.8025 30.3074C24.96 29.9024 25.0425 29.5049 25.1175 29.1224C25.1775 28.8374 25.23 28.5749 25.305 28.3274C25.5825 27.5024 26.2575 26.8124 27.075 26.5124C27.8925 26.2199 28.86 26.3174 29.595 26.7824C30.2625 27.1949 30.7575 27.8774 31.29 28.5974C31.515 28.9049 31.74 29.2124 31.98 29.5049C33.4275 31.2524 35.46 32.4824 37.725 32.9549L38.0325 31.4849C36.105 31.0799 34.365 30.0374 33.1425 28.5449L33.135 28.5299Z" fill="#2490EB"/>
<path d="M12.4875 32.1453L13.6875 33.0453C13.9875 32.6478 14.2875 32.2503 14.5875 31.8603L13.4025 30.9453C13.095 31.3428 12.7875 31.7478 12.4875 32.1453Z" fill="#2490EB"/>
<path d="M24.405 23.6696C24.81 23.5721 25.26 23.4971 25.785 23.4446L25.6275 21.9521C25.035 22.0121 24.5175 22.1021 24.0525 22.2146L24.405 23.6696Z" fill="#2490EB"/>
<path d="M21.87 24.7652C22.305 24.5027 22.71 24.2927 23.115 24.1127L22.5075 22.7402C22.0425 22.9427 21.585 23.1827 21.0975 23.4827L21.87 24.7652Z" fill="#2490EB"/>
<path d="M14.34 29.752L15.51 30.697C15.8175 30.3145 16.1325 29.9395 16.455 29.5645L15.3225 28.582C14.9925 28.9645 14.6625 29.3545 14.3475 29.752H14.34Z" fill="#2490EB"/>
<path d="M27.2475 23.3325C27.7425 23.3025 28.23 23.2725 28.725 23.25L28.6725 21.75C28.1625 21.765 27.66 21.8025 27.1575 21.8325L27.255 23.3325H27.2475Z" fill="#2490EB"/>
<path d="M37.6275 24.4877L37.5075 22.9952C37.0875 23.0252 36.675 23.0027 36.18 22.9277L35.955 24.4127C36.3825 24.4802 36.765 24.5102 37.14 24.5102C37.2975 24.5102 37.4625 24.5102 37.62 24.4952L37.6275 24.4877Z" fill="#2490EB"/>
<path d="M32.97 23.6923L33.6225 23.8648C33.8925 23.9398 34.155 24.0073 34.425 24.0823L34.8 22.6273C34.5375 22.5598 34.2825 22.4923 34.02 22.4173L33.3525 22.2373L32.97 23.6848V23.6923Z" fill="#2490EB"/>
<path d="M31.575 23.3853L31.815 21.9078C31.32 21.8253 30.8025 21.7803 30.2325 21.7578L30.1725 23.2578C30.6825 23.2803 31.14 23.3178 31.575 23.3928V23.3853Z" fill="#2490EB"/>
<path d="M16.3425 27.4427L17.4375 28.4702C17.7675 28.1177 18.1125 27.7652 18.465 27.4277L17.43 26.3477C17.0625 26.7002 16.7025 27.0677 16.35 27.4427H16.3425Z" fill="#2490EB"/>
<path d="M45 0.75H3C1.7625 0.75 0.75 1.7625 0.75 3V38.25C0.75 39.4875 1.7625 40.5 3 40.5H20.82C20.34 42.165 18.63 45.75 12.75 45.75C12.3375 45.75 12 46.0875 12 46.5C12 46.9125 12.3375 47.25 12.75 47.25H35.25C35.64 47.25 35.9625 46.95 36 46.5675C36.0375 46.1775 35.7675 45.8325 35.385 45.765C29.7375 44.7375 27.8625 41.9325 27.2625 40.5H45C46.2375 40.5 47.25 39.4875 47.25 38.25V3C47.25 1.7625 46.2375 0.75 45 0.75ZM30.51 45.75H18.6075C21.1575 44.145 22.065 41.6775 22.365 40.5H25.6725C26.0325 41.64 27.1575 44.04 30.5175 45.75H30.51ZM45.75 38.25C45.75 38.6625 45.4125 39 45 39H3C2.5875 39 2.25 38.6625 2.25 38.25V36.75H45.75V38.25ZM45.75 35.25H2.25V3C2.25 2.5875 2.5875 2.25 3 2.25H45C45.4125 2.25 45.75 2.5875 45.75 3V35.25Z" fill="#2490EB"/>
</g>
<defs>
<clipPath id="clip0_1_2289">
<rect width="48" height="48" fill="white"/>
</clipPath>
</defs>
</svg>
