<svg width="48" height="48" viewBox="0 0 48 48" fill="none" xmlns="http://www.w3.org/2000/svg">
<g clip-path="url(#clip0_1_2313)">
<path d="M3 40.5H31.5V39H3C2.5875 39 2.25 38.6625 2.25 38.25V36H32.25V34.5H2.25V3C2.25 2.5875 2.5875 2.25 3 2.25H40.5C40.9125 2.25 41.25 2.5875 41.25 3V25.5H42.75V3C42.75 1.7625 41.7375 0.75 40.5 0.75H3C1.7625 0.75 0.75 1.7625 0.75 3V38.25C0.75 39.4875 1.7625 40.5 3 40.5Z" fill="#2490EB"/>
<path d="M43.5 35.25H42.8625C43.9275 34.5 44.625 33.27 44.625 31.875C44.625 29.6025 42.7725 27.75 40.5 27.75C38.2275 27.75 36.375 29.6025 36.375 31.875C36.375 33.27 37.0725 34.5 38.1375 35.25H37.5C35.43 35.25 33.75 36.93 33.75 39V42.75H30.75C29.5125 42.75 28.5 43.7625 28.5 45V46.5C28.5 46.9125 28.8375 47.25 29.25 47.25H37.5C37.9125 47.25 38.25 46.9125 38.25 46.5V40.5H36.75V45.75H30V45C30 44.5875 30.3375 44.25 30.75 44.25H34.5C34.9125 44.25 35.25 43.9125 35.25 43.5V39C35.25 37.7625 36.2625 36.75 37.5 36.75H43.5C44.7375 36.75 45.75 37.7625 45.75 39V47.25H47.25V39C47.25 36.93 45.57 35.25 43.5 35.25ZM40.5 34.5C39.0525 34.5 37.875 33.3225 37.875 31.875C37.875 30.4275 39.0525 29.25 40.5 29.25C41.9475 29.25 43.125 30.4275 43.125 31.875C43.125 33.3225 41.9475 34.5 40.5 34.5Z" fill="#2490EB"/>
<path d="M3.75 36.75H5.25V38.25H3.75V36.75Z" fill="#2490EB"/>
<path d="M6.75 36.75H8.25V38.25H6.75V36.75Z" fill="#2490EB"/>
<path d="M9.75 36.75H11.25V38.25H9.75V36.75Z" fill="#2490EB"/>
<path d="M15 18C15 16.3425 13.6575 15 12 15C10.3425 15 9 16.3425 9 18C9 19.6575 10.3425 21 12 21C13.6575 21 15 19.6575 15 18ZM12 19.5C11.175 19.5 10.5 18.825 10.5 18C10.5 17.175 11.175 16.5 12 16.5C12.825 16.5 13.5 17.175 13.5 18C13.5 18.825 12.825 19.5 12 19.5Z" fill="#2490EB"/>
<path d="M35.1674 11.9929C35.1674 11.9929 35.2199 11.9929 35.2499 11.9929C35.5349 11.9929 35.7899 11.8354 35.9174 11.5804L37.2074 8.99289H38.9924V7.49289H36.7424C36.4574 7.49289 36.2024 7.65039 36.0749 7.90539L35.4824 9.09039L34.4774 5.05539C34.4024 4.74789 34.1474 4.52289 33.8324 4.49289C33.5174 4.46289 33.2174 4.62039 33.0824 4.90539L31.7924 7.49289H30.0074V8.99289H32.2574C32.5424 8.99289 32.7974 8.83539 32.9249 8.58039L33.5174 7.39539L34.5224 11.4304C34.5974 11.7379 34.8524 11.9629 35.1674 11.9929Z" fill="#2490EB"/>
<path d="M33.75 27.75V15.75H32.25V21H30.705C30.33 17.6325 27.465 15 24 15H15.75C15.3375 15 15 15.3375 15 15.75V21H7.5V12H6V27.75H7.5V25.5H32.25V27.75H33.75ZM16.5 16.5H24C26.64 16.5 28.8225 18.4575 29.19 21H16.5V16.5ZM7.5 24V22.5H32.25V24H7.5Z" fill="#2490EB"/>
</g>
<defs>
<clipPath id="clip0_1_2313">
<rect width="48" height="48" fill="white"/>
</clipPath>
</defs>
</svg>
